Coordinates
version=1
nRows=29
nColumns=24
inDegrees=yes

Units are S.I. units (second, meters, Newtons, ...)
Angles are in degrees.

endheader
time	pelvis_tilt	pelvis_list	pelvis_rotation	pelvis_tx	pelvis_ty	pelvis_tz	hip_flexion_r	hip_adduction_r	hip_rotation_r	knee_angle_r	ankle_angle_r	subtalar_angle_r	mtp_angle_r	hip_flexion_l	hip_adduction_l	hip_rotation_l	knee_angle_l	ankle_angle_l	subtalar_angle_l	mtp_angle_l	lumbar_extension	lumbar_bending	lumbar_rotation
      3.09000000	     -8.09414234	      1.96204361	      6.65008535	     -1.26318684	     -0.03313901	      0.61943543	     36.48680946	     -6.77546359	      1.90968398	    -20.00966546	     -5.54399279	     -4.90890328	     15.63590230	     -7.70519126	      3.23781216	      9.70197518	    -16.15908257	     11.58726479	      4.08801440	      1.65794870	      5.54735117	      0.52672663	    -15.00400487
      3.09500000	     -8.17969811	      1.71289151	      6.77118698	     -1.25483803	     -0.03397083	      0.61935549	     36.47153143	     -6.51588766	      1.89664523	    -20.44940557	     -5.75480145	     -4.77672371	     15.66594744	     -7.86148956	      2.92812203	      9.76978241	    -16.54230391	     11.15653048	      4.11162111	      1.71226226	      5.81247159	      0.91362732	    -14.92641987
      3.10000000	     -8.05935284	      1.34717930	      6.94387420	     -1.24640415	     -0.03451852	      0.61935914	     36.17362851	     -6.14618961	      1.73260335	    -20.83748864	     -6.35347753	     -5.05019137	     16.49593461	     -8.17364098	      2.40684780	      9.61212840	    -16.92859972	     10.29735343	      4.40967525	      3.54663843	      5.87059065	      1.43578252	    -14.92936802
      3.10500000	     -8.18701736	      1.10449056	      7.14815031	     -1.23791044	     -0.03532446	      0.61927513	     36.20053287	     -5.94205557	      1.61729801	    -21.44366846	     -6.74082246	     -4.98386002	     16.61983218	     -8.20810323	      2.09820041	      9.80305045	    -17.44114909	      9.75348425	      4.46443896	      3.62966698	      6.20146793	      1.78745001	    -14.97023159
      3.11000000	     -8.24004107	      0.82094268	      7.34955314	     -1.22946721	     -0.03604529	      0.61929171	     36.14962492	     -5.69077476	      1.44376524	    -22.02657733	     -7.48905571	     -5.22343485	     17.67821763	     -8.22653134	      1.71156850	      9.76497857	    -18.06721552	      9.07235458	      4.70791791	      4.35954144	      6.44100917	      2.18376363	    -15.03945895
      3.11500000	     -8.31440902	      0.61959066	      7.36184807	     -1.22094017	     -0.03681382	      0.61950320	     36.18181098	     -5.40945505	      1.53464914	    -22.68927220	     -8.21671085	     -5.31299435	     18.90862246	     -8.26020454	      1.45407146	      9.71049887	    -18.64509436	      8.13351257	      4.70512825	      5.30679486	      6.69211409	      2.52427604	    -14.84543789
      3.12000000	     -8.33494926	      0.38575444	      7.42867555	     -1.21240796	     -0.03745232	      0.61961266	     36.17936541	     -5.13357751	      1.57753630	    -23.46400874	     -8.58096441	     -5.09206733	     19.02298126	     -8.28366685	      1.16677128	      9.75380329	    -19.36736675	      7.41966776	      4.77757960	      5.27358612	      6.89057918	      2.90417222	    -14.76753502
      3.12500000	     -8.53601055	      0.11970599	      7.49707840	     -1.20390987	     -0.03825671	      0.61996927	     36.38756269	     -4.82071017	      1.74236597	    -24.20076158	     -9.15831078	     -5.25172854	     19.99728710	     -7.97796995	      0.81819490	      9.52240768	    -20.24451310	      6.41827279	      5.17262159	      6.53112887	      7.28612647	      3.25711506	    -14.67270251
      3.13000000	     -8.54288133	     -0.04110563	      7.46947465	     -1.19544492	     -0.03877519	      0.62026470	     36.43732166	     -4.55179665	      2.02274000	    -25.05245719	     -9.23135448	     -4.96046092	     20.29640060	     -7.93595039	      0.60838762	      9.43863449	    -20.97358048	      4.72128388	      4.99201216	      8.73887343	      7.43641949	      3.56658000	    -14.44827552
      3.13500000	     -8.60437845	     -0.36623135	      7.48192894	     -1.18692167	     -0.03928517	      0.62065282	     36.55072624	     -4.11848702	      2.29429044	    -25.94442962	     -9.08137442	     -4.89579446	     19.61378342	     -7.68535303	      0.20576884	      9.25075699	    -21.95377864	      3.33862205	      5.17840578	     10.23569897	      7.68033807	      4.02010586	    -14.31335745
      3.14000000	     -8.72577380	     -0.60174624	      7.51248187	     -1.17850321	     -0.03982082	      0.62094066	     36.76967987	     -3.80882286	      2.52894105	    -26.93178427	     -8.63666406	     -4.66062316	     18.80013326	     -7.29314081	     -0.06872241	      9.12254596	    -23.04993959	      1.78544681	      5.24560525	     11.63600412	      7.96807580	      4.37465864	    -14.19317772
      3.14500000	     -8.79947047	     -0.84705335	      7.50621584	     -1.17011705	     -0.04026324	      0.62129121	     36.94664962	     -3.45535338	      2.76448823	    -27.95572270	     -8.00059100	     -4.43937348	     17.54826705	     -6.87104599	     -0.36399677	      8.88886489	    -24.23718687	      0.06677121	      5.36377973	     13.19881316	      8.19397009	      4.75149287	    -14.03656930
      3.15000000	     -8.95133286	     -1.06294995	      7.48065663	     -1.16175739	     -0.04078378	      0.62166848	     37.20071005	     -3.12389777	      3.03415127	    -28.98517970	     -7.28608106	     -4.25508722	     16.41780245	     -6.27475605	     -0.61190669	      8.61147014	    -25.56028982	     -1.68262427	      5.53431917	     14.49783909	      8.50208222	      5.08586041	    -13.89884599
      3.15500000	     -8.89456787	     -1.29992835	      7.50839148	     -1.15349507	     -0.04092951	      0.62189801	     37.18393016	     -2.79992279	      3.07309378	    -29.96656068	     -6.50639728	     -4.12811763	     14.78195318	     -5.85280215	     -0.89427887	      8.44693520	    -26.83904976	     -3.97706284	      5.36325368	     16.53106621	      8.56775572	      5.47608132	    -13.76002782
      3.16000000	     -9.00445592	     -1.51055448	      7.49536952	     -1.14535963	     -0.04126998	      0.62218765	     37.31778424	     -2.49100169	      3.18169956	    -30.86154620	     -5.94005384	     -4.22179168	     13.99237045	     -5.13167957	     -1.10960172	      8.21727796	    -28.31334449	     -6.14102603	      5.24771337	     17.87151925	      8.79703238	      5.81713408	    -13.63566106
      3.16500000	     -8.90611940	     -1.75009123	      7.50091869	     -1.13726349	     -0.04126751	      0.62233105	     37.15658709	     -2.19494027	      3.04242887	    -31.64149571	     -5.25027802	     -4.03675631	     13.25366054	     -4.59356715	     -1.37763519	      8.01516244	    -29.73510934	     -8.69699399	      5.00125857	     19.69173939	      8.79486703	      6.23080812	    -13.47379376
      3.17000000	     -8.95131600	     -1.92813817	      7.50806485	     -1.12939623	     -0.04136002	      0.62248794	     37.10433744	     -1.96966233	      2.94149465	    -32.30844649	     -4.74639796	     -4.07159334	     13.10563178	     -3.79191729	     -1.52069308	      7.88309369	    -31.31532127	    -11.16872287	      4.65347739	     20.59392715	      8.91220575	      6.55131072	    -13.36775181
      3.17500000	     -8.88235940	     -2.20784096	      7.46244771	     -1.12152419	     -0.04129447	      0.62265592	     36.86453022	     -1.64258691	      2.70376554	    -32.83867445	     -4.12510972	     -3.81200171	     13.11295341	     -3.06491331	     -1.80395350	      7.64577953	    -32.85286924	    -13.94105601	      4.33680212	     22.24384756	      8.91407926	      7.01557545	    -13.16175551
      3.18000000	     -8.84611073	     -2.46753895	      7.43391854	     -1.11386299	     -0.04118298	      0.62280893	     36.60620542	     -1.34842806	      2.45804853	    -33.24817850	     -3.58207144	     -3.66142350	     13.30328289	     -2.21805152	     -2.03019927	      7.47701001	    -34.46495750	    -16.75306556	      3.88571060	     23.37994080	      8.91950202	      7.44318057	    -13.01565834
      3.18500000	     -8.81290139	     -2.69420187	      7.40828596	     -1.10636625	     -0.04105763	      0.62282814	     36.32108373	     -1.13950299	      2.08097579	    -33.59262832	     -2.94179525	     -3.27071324	     13.62159027	     -1.30586336	     -2.18222193	      7.36562811	    -36.13231635	    -19.53011737	      3.39987401	     24.07345689	      8.90036478	      7.84738002	    -12.79918627
      3.19000000	     -8.76859631	     -2.97403943	      7.37157139	     -1.09899564	     -0.04088441	      0.62291844	     35.97849763	     -0.86351571	      1.70556283	    -33.82857446	     -2.37313350	     -2.97907434	     13.93481442	     -0.33424537	     -2.39267938	      7.22717786	    -37.82699071	    -22.40518697	      2.87723520	     24.85682019	      8.85743426	      8.29784411	    -12.60668677
      3.19500000	     -8.66958851	     -3.39379761	      7.28380376	     -1.09166476	     -0.04067781	      0.62307782	     35.53696141	     -0.40653469	      1.32829723	    -33.95429674	     -1.87666248	     -2.80530198	     14.11186275	      0.67200539	     -2.77150316	      6.95935913	    -39.67311181	    -24.74756098	      2.57608810	     24.49421547	      8.76254997	      8.90727500	    -12.36708235
      3.20000000	     -8.68728251	     -3.66162389	      7.25124660	     -1.08456626	     -0.04052278	      0.62317859	     35.21057888	     -0.15684122	      0.96937783	    -34.07496202	     -1.38866627	     -2.52415623	     14.62125275	      1.81203300	     -2.93649169	      6.88280613	    -41.38634047	    -27.74351294	      1.97976003	     25.54738145	      8.75280369	      9.31978217	    -12.17696697
      3.20500000	     -8.58062893	     -4.07640217	      7.17377997	     -1.07750997	     -0.04030138	      0.62337785	     34.73123585	      0.29303789	      0.58020041	    -34.12795026	     -0.92381960	     -2.36067881	     14.83539216	      2.91728912	     -3.30967792	      6.61489087	    -43.28947502	    -29.90912412	      1.66080386	     25.11041572	      8.61051453	      9.89715255	    -11.96086469
      3.21000000	     -8.49637257	     -4.50303414	      7.07258282	     -1.07043982	     -0.04008362	      0.62355733	     34.24735626	      0.76781006	      0.24820640	    -34.13379089	     -0.40956128	     -2.09909190	     15.09638549	      4.05706788	     -3.68099335	      6.39262989	    -45.19145254	    -31.79361838	      1.46260895	     24.69174778	      8.49832201	     10.49242264	    -11.62883720
      3.21500000	     -8.46519161	     -4.86287993	      7.00462770	     -1.06354119	     -0.03987850	      0.62376832	     33.82664698	      1.16864918	     -0.06225956	    -34.14634314	      0.02765591	     -1.95933266	     15.43962868	      5.30296653	     -3.97765310	      6.16711318	    -47.12109261	    -33.44695548	      1.20876707	     24.21542778	      8.42100123	     10.97769480	    -11.44334481
      3.22000000	     -8.46446594	     -5.25341702	      6.92476084	     -1.05659959	     -0.03964435	      0.62395222	     33.40179051	      1.61455702	     -0.31863891	    -34.08667211	      0.45369044	     -1.84322556	     15.84887268	      6.59070478	     -4.29412531	      5.98671504	    -49.06650686	    -34.52374775	      1.17749686	     23.66743613	      8.39118525	     11.49147266	    -11.15354749
      3.22500000	     -8.42837576	     -5.63117649	      6.80477717	     -1.04968232	     -0.03932681	      0.62420676	     32.92996341	      2.09059475	     -0.50610575	    -34.00629965	      0.86894144	     -1.74123631	     16.17693433	      7.83367904	     -4.62178224	      5.76958707	    -51.00412376	    -34.97044952	      1.43978343	     23.25025823	      8.31090170	     11.99220293	    -10.83666867
      3.23000000	     -8.30503501	     -5.89835451	      6.64755520	     -1.04274610	     -0.03878361	      0.62445764	     32.33522858	      2.50089030	     -0.56377290	    -33.91176301	      1.37017355	     -1.51921722	     16.36025962	      8.92244766	     -4.84688697	      5.50384463	    -52.82346069	    -35.07797236	      1.74536765	     23.32516278	      8.11486920	     12.39083776	    -10.47878555
